<svg width="252" height="385" viewBox="0 0 252 385" fill="none" xmlns="http://www.w3.org/2000/svg">
<path d="M58.0067 384C78.6346 371.351 94.1087 357.815 97.8236 335.425C100.584 318.798 94.6581 304.506 82.1794 290.996C77.0649 296.486 72.2775 301.455 67.6993 306.619C64.0107 310.765 60.0342 312.643 54.4489 310.361C49.5437 308.353 46.823 311.678 45.698 315.603C44.5862 319.476 43.5659 323.936 44.4031 327.731C48.458 346 53.1408 364.126 58.0198 384L58.0067 384Z" stroke="white" stroke-width="2" stroke-linejoin="round"/>
<path d="M195.075 384C174.447 371.351 158.973 357.815 155.258 335.425C152.499 318.798 158.424 304.506 170.903 290.996C176.017 296.486 180.805 301.455 185.383 306.619C189.071 310.765 193.048 312.643 198.633 310.361C203.538 308.353 206.259 311.678 207.384 315.603C208.496 319.476 209.516 323.936 208.679 327.731C204.624 346 199.941 364.126 195.062 384L195.075 384Z" stroke="white" stroke-width="2" stroke-linejoin="round"/>
<path d="M126.044 327.199L125.993 328.198C126.01 328.199 126.027 328.199 126.044 328.199L126.044 327.199ZM111.028 323.439L111.46 322.538L111.46 322.537L111.028 323.439ZM103.045 318.297L102.057 318.45C102.094 318.689 102.217 318.908 102.403 319.064L103.045 318.297ZM87.2969 288.619L88.0318 287.941C87.843 287.736 87.5774 287.62 87.299 287.619C87.0206 287.619 86.7545 287.734 86.5649 287.938L87.2969 288.619ZM87.1826 288.742L86.1919 288.878C86.2445 289.261 86.5126 289.579 86.8808 289.696C87.2489 289.812 87.6513 289.706 87.9145 289.424L87.1826 288.742ZM90.375 262.258L89.4395 261.904L89.4372 261.911L90.375 262.258ZM98.4219 247.769L99.2313 248.356L99.2313 248.356L98.4219 247.769ZM126.046 221.052L126.663 220.265C126.302 219.982 125.794 219.981 125.432 220.262L126.046 221.052ZM127.356 222.079L127.976 221.294L127.973 221.292L127.356 222.079ZM153.669 247.769L152.859 248.356L152.859 248.356L153.669 247.769ZM161.716 262.258L162.654 261.911L162.651 261.904L161.716 262.258ZM164.92 288.661L165.655 289.339C165.794 289.188 165.883 288.999 165.911 288.796L164.92 288.661ZM149.229 318.143L149.875 318.905C150.058 318.75 150.179 318.535 150.216 318.299L149.229 318.143ZM141.063 323.439L140.631 322.537L140.631 322.538L141.063 323.439ZM126.047 327.199L126.047 328.199C126.064 328.199 126.081 328.199 126.097 328.198L126.047 327.199ZM93.8516 274.195L92.8618 274.052C92.793 274.528 93.0731 274.986 93.5284 275.142C93.9837 275.297 94.4852 275.106 94.722 274.688L93.8516 274.195ZM97.875 268.426L98.6381 269.072L98.6386 269.071L97.875 268.426ZM104.805 261.896L104.12 261.167L104.12 261.167L104.805 261.896ZM113.3 252.527L112.495 251.934L112.494 251.935L113.3 252.527ZM118.146 244.067L117.146 244.067C117.146 244.301 117.227 244.526 117.376 244.706L118.146 244.067ZM118.146 244.063L119.146 244.063C119.146 243.584 118.806 243.172 118.335 243.082L118.146 244.063ZM114.406 247.577L114.393 246.577L114.392 246.577L114.406 247.577ZM113.3 247.294L113.659 246.361L113.657 246.36L113.3 247.294ZM104.045 251.519L104.658 252.308L104.659 252.308L104.045 251.519ZM98.6348 257.4L99.4881 257.922L99.4882 257.922L98.6348 257.4ZM95.7949 264.937L94.8318 264.667L94.8316 264.668L95.7949 264.937ZM158.238 274.205L157.368 274.697C157.605 275.116 158.106 275.307 158.561 275.151C159.017 274.996 159.297 274.538 159.228 274.062L158.238 274.205ZM156.295 264.945L157.258 264.677L157.258 264.676L156.295 264.945ZM153.455 257.41L152.602 257.931L152.602 257.932L153.455 257.41ZM148.045 251.528L147.431 252.318L147.431 252.318L148.045 251.528ZM138.79 247.303L138.433 246.369L138.432 246.369L138.79 247.303ZM137.683 247.587L137.696 246.587L137.696 246.587L137.683 247.587ZM133.943 244.073L133.594 243.136C133.203 243.282 132.943 243.656 132.943 244.073L133.943 244.073ZM133.943 244.076L134.584 244.844C134.812 244.654 134.943 244.373 134.943 244.076L133.943 244.076ZM138.79 252.537L139.596 251.945L139.595 251.944L138.79 252.537ZM147.285 261.905L147.97 261.177L147.97 261.176L147.285 261.905ZM154.215 268.435L153.451 269.08L153.452 269.081L154.215 268.435ZM126.044 327.199L126.095 326.2C122.576 326.022 117.22 325.296 111.46 322.538L111.028 323.439L110.596 324.341C116.668 327.249 122.306 328.011 125.993 328.198L126.044 327.199ZM111.028 323.439L111.46 322.537C108.474 321.109 105.9 319.384 103.687 317.53L103.045 318.297L102.403 319.064C104.734 321.016 107.448 322.835 110.597 324.342L111.028 323.439ZM103.045 318.297L104.033 318.144C102.355 307.279 96.745 297.383 88.0318 287.941L87.2969 288.619L86.562 289.297C95.0969 298.546 100.457 308.092 102.057 318.45L103.045 318.297ZM87.2969 288.619L86.5649 287.938C86.5122 287.994 86.5 288.008 86.4508 288.061L87.1826 288.742L87.9145 289.424C87.9413 289.395 88.0055 289.326 88.0289 289.3L87.2969 288.619ZM87.1826 288.742L88.1733 288.606C86.4188 275.832 90.2994 265.342 91.3128 262.605L90.375 262.258L89.4372 261.911C88.3992 264.714 84.3672 275.594 86.1919 288.878L87.1826 288.742ZM90.375 262.258L91.3105 262.611C91.3084 262.617 91.9669 260.874 93.2887 258.216C94.6111 255.557 96.5917 251.994 99.2313 248.356L98.4219 247.769L97.6124 247.181C92.1766 254.675 89.4673 261.831 89.4396 261.904L90.375 262.258ZM98.4219 247.769L99.2313 248.356C103.22 242.857 112.594 232.78 126.66 221.841L126.046 221.052L125.432 220.262C111.262 231.282 101.741 241.49 97.6124 247.181L98.4219 247.769ZM126.046 221.052L125.429 221.839L126.74 222.866L127.356 222.079L127.973 221.292L126.663 220.265L126.046 221.052ZM127.356 222.079L126.737 222.864C140.08 233.406 148.996 243.03 152.859 248.356L153.669 247.769L154.478 247.181C150.479 241.668 141.419 231.916 127.976 221.294L127.356 222.079ZM153.669 247.769L152.859 248.356C158.147 255.645 160.782 262.616 160.78 262.611L161.716 262.258L162.651 261.904C162.625 261.835 159.916 254.677 154.478 247.181L153.669 247.769ZM161.716 262.258L160.778 262.605C161.79 265.337 165.656 275.789 163.929 288.527L164.92 288.661L165.911 288.796C167.707 275.549 163.69 264.709 162.654 261.911L161.716 262.258ZM164.92 288.661L164.185 287.983C155.534 297.367 149.949 307.199 148.241 317.986L149.229 318.143L150.216 318.299C151.845 308.015 157.181 298.53 165.655 289.339L164.92 288.661ZM149.229 318.143L148.582 317.38C146.328 319.291 143.697 321.07 140.631 322.537L141.063 323.439L141.494 324.342C144.728 322.794 147.502 320.917 149.875 318.905L149.229 318.143ZM141.063 323.439L140.631 322.538C134.871 325.296 129.515 326.022 125.996 326.2L126.047 327.199L126.097 328.198C129.785 328.011 135.423 327.249 141.494 324.341L141.063 323.439ZM126.047 327.199L126.047 326.199L126.044 326.199L126.044 327.199L126.044 328.199L126.047 328.199L126.047 327.199ZM93.8516 274.195L94.722 274.688C95.4986 273.314 96.7671 271.282 98.6381 269.072L97.875 268.426L97.1119 267.78C95.1389 270.109 93.8013 272.253 92.9811 273.703L93.8516 274.195ZM97.875 268.426L98.6386 269.071C99.7612 267.744 100.574 266.976 101.546 266.127C102.528 265.269 103.707 264.299 105.49 262.624L104.805 261.896L104.12 261.167C102.373 262.809 101.25 263.729 100.23 264.62C99.2014 265.519 98.3136 266.358 97.1114 267.78L97.875 268.426ZM104.805 261.896L105.489 262.624C110.461 257.955 113.457 254.002 114.105 253.12L113.3 252.527L112.494 251.935C111.895 252.75 108.979 256.603 104.12 261.167L104.805 261.896ZM113.3 252.527L114.105 253.121C115.968 250.594 117.221 248.448 118.006 246.915C118.397 246.148 118.674 245.532 118.852 245.094C118.94 244.876 119.007 244.695 119.053 244.557C119.074 244.491 119.096 244.419 119.113 244.35C119.12 244.319 119.133 244.261 119.141 244.191C119.144 244.159 119.151 244.09 119.145 244.004C119.143 243.973 119.132 243.69 118.915 243.429L118.146 244.067L117.376 244.706C117.161 244.447 117.151 244.167 117.149 244.142C117.144 244.061 117.15 243.999 117.152 243.975C117.158 243.923 117.167 243.888 117.167 243.887C117.169 243.877 117.167 243.89 117.152 243.933C117.126 244.015 117.076 244.151 116.999 244.341C116.845 244.72 116.593 245.284 116.225 246.004C115.489 247.444 114.292 249.497 112.495 251.934L113.3 252.527ZM118.146 244.067L119.146 244.067L119.146 244.063L118.146 244.063L117.146 244.063L117.146 244.067L118.146 244.067ZM118.146 244.063L118.335 243.082C117.87 242.992 117.553 243.256 117.525 243.277C117.439 243.345 117.383 243.412 117.362 243.437C117.315 243.494 117.281 243.548 117.268 243.569C117.235 243.621 117.202 243.68 117.177 243.726C117.116 243.836 117.055 243.951 116.964 244.112C116.791 244.42 116.554 244.816 116.263 245.207C115.969 245.602 115.644 245.958 115.303 246.211C114.965 246.462 114.663 246.574 114.393 246.577L114.406 247.577L114.42 248.577C115.239 248.566 115.941 248.229 116.496 247.817C117.05 247.405 117.509 246.883 117.867 246.401C118.229 245.915 118.513 245.437 118.707 245.093C118.801 244.926 118.884 244.771 118.928 244.692C118.955 244.644 118.963 244.629 118.962 244.631C118.961 244.633 118.957 244.64 118.949 244.651C118.943 244.66 118.928 244.681 118.907 244.708C118.891 244.726 118.839 244.789 118.757 244.853C118.733 244.872 118.419 245.135 117.956 245.045L118.146 244.063ZM114.406 247.577L114.392 246.577C114.142 246.581 114.073 246.52 113.659 246.361L113.3 247.294L112.941 248.227C113.128 248.299 113.677 248.587 114.42 248.577L114.406 247.577ZM113.3 247.294L113.657 246.36C112.687 245.989 111.661 246.043 110.705 246.288C109.749 246.534 108.794 246.987 107.908 247.503C106.146 248.529 104.473 249.919 103.431 250.729L104.045 251.519L104.659 252.308C105.774 251.44 107.302 250.171 108.915 249.231C109.716 248.765 110.492 248.408 111.202 248.226C111.911 248.044 112.486 248.053 112.942 248.228L113.3 247.294ZM104.045 251.519L103.431 250.729C102.183 251.699 99.7861 253.597 97.7814 256.879L98.6348 257.4L99.4882 257.922C101.3 254.956 103.463 253.237 104.658 252.308L104.045 251.519ZM98.6348 257.4L97.7814 256.879C96.3713 259.187 95.8182 261.138 94.8318 264.667L95.7949 264.937L96.758 265.206C97.7535 261.644 98.2442 259.958 99.4881 257.922L98.6348 257.4ZM95.7949 264.937L94.8316 264.668C94.1924 266.963 93.4259 270.148 92.8618 274.052L93.8516 274.195L94.8413 274.338C95.3907 270.536 96.1369 267.436 96.7583 265.205L95.7949 264.937ZM158.238 274.205L159.228 274.062C158.664 270.158 157.897 266.972 157.258 264.677L156.295 264.945L155.332 265.214C155.953 267.445 156.699 270.545 157.249 274.348L158.238 274.205ZM156.295 264.945L157.258 264.676C156.272 261.147 155.718 259.197 154.308 256.889L153.455 257.41L152.602 257.932C153.845 259.967 154.337 261.654 155.332 265.215L156.295 264.945ZM153.455 257.41L154.309 256.889C152.304 253.606 149.907 251.709 148.658 250.739L148.045 251.528L147.431 252.318C148.627 253.247 150.79 254.965 152.602 257.931L153.455 257.41ZM148.045 251.528L148.659 250.739C147.617 249.929 145.944 248.539 144.182 247.513C143.296 246.996 142.342 246.543 141.385 246.298C140.429 246.052 139.403 245.998 138.433 246.369L138.79 247.303L139.147 248.237C139.604 248.062 140.179 248.053 140.888 248.235C141.598 248.417 142.374 248.774 143.175 249.241C144.788 250.181 146.316 251.45 147.431 252.318L148.045 251.528ZM138.79 247.303L138.432 246.369C138.014 246.53 137.947 246.59 137.696 246.587L137.683 247.587L137.669 248.587C138.412 248.597 138.964 248.307 139.149 248.236L138.79 247.303ZM137.683 247.587L137.696 246.587C137.425 246.583 137.123 246.472 136.784 246.22C136.443 245.966 136.117 245.608 135.823 245.213C135.532 244.822 135.295 244.425 135.122 244.117C135.031 243.956 134.971 243.843 134.91 243.732C134.885 243.687 134.852 243.627 134.819 243.574C134.806 243.554 134.769 243.496 134.718 243.435C134.696 243.41 134.631 243.334 134.529 243.261C134.487 243.231 134.101 242.947 133.594 243.136L133.943 244.073L134.293 245.01C133.788 245.198 133.405 244.916 133.366 244.888C133.268 244.818 133.207 244.746 133.191 244.727C133.166 244.698 133.149 244.674 133.142 244.664C133.134 244.652 133.129 244.644 133.127 244.642C133.125 244.638 133.133 244.65 133.159 244.699C133.202 244.775 133.286 244.932 133.379 245.097C133.572 245.441 133.856 245.919 134.218 246.406C134.577 246.888 135.036 247.412 135.59 247.824C136.146 248.238 136.848 248.576 137.669 248.587L137.683 247.587ZM133.943 244.073L132.943 244.073L132.943 244.076L133.943 244.076L134.943 244.076L134.943 244.073L133.943 244.073ZM133.943 244.076L133.303 243.308C132.978 243.579 132.951 243.941 132.948 243.97C132.937 244.07 132.943 244.15 132.946 244.183C132.953 244.258 132.967 244.321 132.974 244.351C132.99 244.421 133.013 244.495 133.034 244.56C133.079 244.697 133.146 244.878 133.234 245.095C133.411 245.531 133.687 246.148 134.079 246.914C134.863 248.448 136.117 250.598 137.985 253.131L138.79 252.537L139.595 251.944C137.793 249.501 136.596 247.444 135.859 246.004C135.491 245.283 135.24 244.72 135.087 244.343C135.01 244.153 134.961 244.018 134.935 243.939C134.921 243.896 134.919 243.886 134.922 243.898C134.922 243.899 134.932 243.939 134.937 243.998C134.94 244.023 134.946 244.097 134.935 244.192C134.933 244.216 134.906 244.575 134.584 244.844L133.943 244.076ZM138.79 252.537L137.984 253.129C138.633 254.012 141.629 257.965 146.601 262.634L147.285 261.905L147.97 261.176C143.111 256.613 140.195 252.76 139.596 251.945L138.79 252.537ZM147.285 261.905L146.6 262.634C148.383 264.309 149.562 265.279 150.544 266.136C151.516 266.985 152.329 267.753 153.451 269.08L154.215 268.435L154.978 267.789C153.776 266.367 152.888 265.528 151.859 264.629C150.839 263.739 149.717 262.818 147.97 261.177L147.285 261.905ZM154.215 268.435L153.452 269.081C155.323 271.291 156.591 273.324 157.368 274.697L158.238 274.205L159.109 273.713C158.289 272.263 156.951 270.119 154.978 267.788L154.215 268.435Z" fill="white"/>
<path d="M86.7364 186.896C62.3698 195.72 46.5186 215.316 36.8985 243.397C27.2891 271.436 29.0373 300.322 35.7402 329.151C35.1825 329.659 34.6141 330.168 34.0564 330.676C32.748 328.247 31.5468 325.706 30.1097 323.405C7.40542 287.248 -1.38887 244.922 1.54971 199.207C6.5689 121.161 36.1263 61.54 85.1599 18.2112C94.587 9.88145 104.808 3.06234 116.83 1.74935C115.725 2.96351 114.664 4.2765 113.495 5.40596C94.3617 23.9573 76.741 44.5134 65.9412 73.004C53.1787 106.676 53.79 139.473 71.4644 170.307C73.3841 173.653 75.7221 176.66 78.1674 179.357C80.4303 181.856 83.1007 183.733 86.7364 186.868L86.7364 186.896Z" stroke="white" stroke-width="2" stroke-linejoin="round"/>
<path d="M165.108 186.896C189.52 195.72 205.4 215.316 215.038 243.397C224.665 271.436 222.914 300.322 216.198 329.151C216.757 329.659 217.326 330.168 217.885 330.676C219.196 328.247 220.399 325.706 221.839 323.405C244.585 287.248 253.396 244.922 250.452 199.207C245.423 121.161 215.811 61.54 166.688 18.2112C157.243 9.88145 147.004 3.06234 134.959 1.74935C136.066 2.96351 137.129 4.2765 138.301 5.40596C157.469 23.9573 175.122 44.5135 185.942 73.004C198.728 106.676 198.115 139.473 180.408 170.307C178.485 173.653 176.143 176.66 173.693 179.357C171.426 181.856 168.75 183.733 165.108 186.868L165.108 186.896Z" stroke="white" stroke-width="2" stroke-linejoin="round"/>
</svg>
