<svg width="256" height="256" viewBox="0 0 256 256" fill="none" xmlns="http://www.w3.org/2000/svg">
<path fill-rule="evenodd" clip-rule="evenodd" d="M128 0C198.692 0 256 57.3075 256 128C256 198.692 198.692 256 128 256C57.3075 256 0 198.692 0 128C0 57.3075 57.3075 0 128 0ZM61.5735 57.1397C60.6268 58.4405 59.7604 59.804 58.7206 61.0368C42.2846 80.4132 35.9168 103.097 38.0441 127.596C41.678 169.42 63.0779 201.369 98.5735 224.588C105.397 229.052 112.797 232.708 121.5 233.412C120.7 232.761 119.927 232.054 119.081 231.449C105.231 221.507 92.4721 210.495 84.6544 195.228C75.4155 177.183 75.8598 159.605 88.6544 143.081C90.0436 141.288 91.738 139.68 93.5074 138.235C95.1455 136.896 97.0813 135.886 99.7132 134.206V134.191C82.0739 129.462 70.5965 118.96 63.6324 103.912C56.6765 88.886 57.9418 73.4053 62.7941 57.9559C62.3906 57.6837 61.977 57.4119 61.5735 57.1397ZM193.235 57.9559C198.081 73.4049 199.351 88.8864 192.404 103.912C185.449 118.96 173.984 129.462 156.368 134.191V134.206C158.996 135.886 160.93 136.896 162.566 138.235C164.333 139.68 166.025 141.289 167.412 143.081C180.19 159.605 180.631 177.183 171.404 195.228C163.596 210.495 150.854 221.507 137.022 231.449C136.177 232.054 135.409 232.761 134.61 233.412C143.302 232.708 150.692 229.052 157.507 224.588C192.957 201.369 214.327 169.42 217.956 127.596C220.08 103.097 213.723 80.4132 197.309 61.0368C196.27 59.8036 195.402 58.441 194.456 57.1397C194.053 57.4121 193.638 57.6835 193.235 57.9559ZM127.728 53.2059C125.57 53.1727 123.411 53.1906 121.257 53.2647C120.376 53.2952 118.873 54.7479 118.801 55.6324C118.175 63.9769 114.999 71.2209 109.338 77.4265C107.887 79.0124 108.174 80.213 109.596 81.6103C112.673 84.63 115.742 87.6629 118.772 90.6691L127.728 99.5735C133.61 93.7452 139.736 87.6576 145.904 81.6176C147.33 80.2196 147.618 79.0134 146.162 77.4265C140.49 71.2202 137.312 63.9777 136.684 55.6324C136.612 54.7487 135.104 53.2982 134.221 53.2647C132.061 53.1905 129.892 53.1726 127.728 53.2059ZM87.7647 22.5882C84.8722 34.0947 82.1025 44.5912 79.6985 55.1691C79.2022 57.3664 79.8114 59.9486 80.4706 62.1912C81.1375 64.4636 82.7468 66.39 85.6544 65.2279C88.9659 63.9066 91.3277 64.9959 93.5147 67.3971C96.2282 70.386 99.0644 73.2634 102.096 76.4412C109.494 68.6186 113.011 60.3405 111.375 50.7132C109.172 37.7492 99.9944 29.9123 87.7647 22.5882ZM168.015 22.5882C155.787 29.9115 146.614 37.7509 144.412 50.7132C142.775 60.3405 146.293 68.6186 153.691 76.4412C156.722 73.2634 159.559 70.3861 162.272 67.3971C164.459 64.9959 166.821 63.9066 170.132 65.2279C173.039 66.3892 174.649 64.4635 175.316 62.1912C175.975 59.9486 176.585 57.3664 176.088 55.1691C173.684 44.5907 170.907 34.0954 168.015 22.5882Z" fill="white"/>
</svg>
