<svg width="283" height="270" viewBox="0 0 283 270" fill="none" xmlns="http://www.w3.org/2000/svg">
<path d="M128.336 0.591331C144.5 -0.945341 160.547 0.797378 176.55 2.57668C196.801 4.82508 216.51 9.50383 235.094 18.0728C251.776 25.7643 266.112 36.4204 276.178 52.1431C279.873 57.9177 282.397 64.0682 282.32 71.064C282.288 73.8623 282.955 76.8872 282.118 79.4146C280.204 85.1771 277.655 90.7419 275.171 96.3023C273.678 99.6425 271.116 102.117 267.855 103.852C266.609 104.515 265.387 105.235 264.226 106.036C257.809 110.468 251.238 110.751 243.959 107.9C235.543 104.604 231.704 98.5623 231.149 89.9448C230.773 84.1096 231.671 78.367 233.168 72.7906C234.891 66.369 233.916 60.1253 232.868 53.8169C231.962 48.3699 228.992 44.0427 225.565 39.9058C224.457 38.5713 223.894 36.7597 222.717 35.5142C216.575 29.0157 209.049 24.4257 201.135 20.4546C190.121 14.9266 178.573 11.2509 166.147 10.8667C164.148 10.8061 162.081 10.9838 160.138 11.4448C153.422 13.0422 149.858 17.6806 148.373 24.1626C146.9 30.6085 147.187 37.1398 147.511 43.6665C148.219 57.8525 148.922 72.039 149.638 86.229C149.703 87.4906 149.862 88.7482 149.983 90.0825C154.248 90.0826 158.371 90.3618 162.437 90.0181C168.725 89.4844 174.256 91.8861 179.657 94.3042C186.738 97.4746 188.648 104.411 186.685 110.897C185.435 115.026 181.939 117.852 178.407 120.254C172.775 124.084 166.382 125.831 159.678 126.535C157.808 126.733 155.927 126.854 154.05 126.959C152.362 127.053 151.443 127.877 151.358 129.584C151.346 129.85 151.354 130.121 151.354 130.392V236.618L151.358 236.61C154.7 235.89 157.311 234.612 158.852 231.518C161.454 226.293 164.043 221.04 167.025 216.034C169.141 212.483 171.646 209.083 174.429 206.026C178.961 201.056 191.545 197.577 199.925 203.126C205.298 206.684 207.718 211.845 207.803 218.372C207.932 228.449 204.72 237.378 199.294 245.652C197.416 248.511 195.514 251.382 193.338 254.006C186.815 261.864 177.889 265.159 168.15 266.639C161.773 267.606 155.372 268.549 148.947 269.03C143.25 269.454 137.5 269.232 131.775 269.289C131.251 269.293 130.726 269.224 130.735 269.223C129.501 267.278 128.583 265.604 127.458 264.084C117.82 251.099 105.455 241.672 90.7029 234.992C77.3992 228.966 63.6503 224.182 50.0593 218.929C41.7647 215.722 34.0195 211.093 25.992 207.178C23.7708 206.095 21.469 205.108 19.1062 204.4C16.3185 203.567 13.7848 204.889 13.1697 207.715C12.5628 210.493 12.5829 213.413 12.324 216.321C11.7819 214.805 11.1873 213.219 10.6492 211.618C1.85705 185.527 -1.11261 158.716 0.360125 131.291C1.1208 117.129 2.83191 103.148 7.46071 89.7066C18.8466 56.6517 38.9483 30.7546 70.4031 14.4536C84.953 6.91184 100.506 2.63788 116.844 1.27102C120.668 0.951555 124.52 0.955266 128.336 0.591331ZM12.3728 134.679C12.1504 135.633 11.9645 136.207 11.8836 136.793C10.1963 149.087 11.8105 160.839 17.115 172.154C20.8779 180.185 25.7621 186.91 33.992 190.921C42.4484 195.042 51.4187 196.777 60.6843 197.194C70.0308 197.618 79.3975 197.671 88.7439 198.063C98.9604 198.492 106.704 207.752 113.311 215.585C113.724 216.075 116.032 245.652 116.032 245.652C116.032 245.652 115.793 211.866 116.031 211.784C115.679 207.21 115.784 202.548 114.898 198.08C110.646 176.663 99.4706 160.952 77.6902 154.369C62.9339 149.908 47.8333 147.607 32.4256 147.078C29.4598 146.977 26.401 146.313 23.6052 145.298C18.6001 143.483 15.1648 139.693 12.3689 134.667L12.3728 134.679Z" fill="white"/>
</svg>
